<?xml version="1.0" encoding="utf-8"?>
<?xml-stylesheet type="text/xsl" href="rss1.xsl"?>
<rss version="2.0" xmlns:atom="http://www.w3.org/2005/Atom" xmlns:content="http://purl.org/rss/1.0/modules/content/" xmlns:dc="http://purl.org/dc/elements/1.1/" xmlns:media="http://search.yahoo.com/mrss/">
<channel>
 <title>Getty</title>
 <link>http://www.gettyimg.com/</link>
 <atom:link href="http://www.gettyimg.com/" rel="self" type="application/rss+xml" />

 
                <item>
                <title><![CDATA[【Cinema Center】MOVIE - Camp Rock 2: The Final Jam (1080p) (DTS-HD) (MA) (5.1) (BluRay) (2010) (Remux) [MAVERICK]]]></title>
                <link><![CDATA[https://sharemania.us/threads/camp-rock-2-the-final-jam-1080p-dts-hd-ma-5-1-bluray-2010-remux-maverick.223912/]]></link>
                <description><![CDATA[<article>
<blockquote class="messageText SelectQuoteContainer ugc baseHtml">
<div style="text-align: center"><img src="https://i.ytimg.com/vi/1TgZ0S1TkV0/maxresdefault.jpg" class="bbCodeImage LbImage" alt="[​IMG]" data-url="https://i.ytimg.com/vi/1TgZ0S1TkV0/maxresdefault.jpg" style="">​</div><b>Plot:</b> Mitchie is back with her friends at Camp Rock, ready to perform music, dance and have a good time. Her "boyfriend" is there as well. A new camp has opened across the lake, creating an atmosphere of competition or feud.<br>
<div style="text-align: center"><img src="https://i.postimg.cc/NfTCfFKN/Camp-Rock-2-The-Final-Jam-1080p-DTS-HD-MA-5-1-Blu-Ray-2010-Remux-MAVERICK.jpg" class="bbCodeImage LbImage" alt="[​IMG]" data-url="https://i.postimg.cc/NfTCfFKN/Camp-Rock-2-The-Final-Jam-1080p-DTS-HD-MA-5-1-Blu-Ray-2010-Remux-MAVERICK.jpg" style="">​</div><div style="text-align: left">
<div class="ToggleTriggerAnchor bbCodeSpoilerContainer">
<button type="button" class="button bbCodeSpoilerButton ToggleTrigger Tooltip JsOnly" data-target="> .SpoilerTarget"><span>Spoiler: <span class="SpoilerTitle">IMDB:</span></span></button>
<div class="SpoilerTarget bbCodeSpoilerText"><a href="https://www.imdb.com/title/tt1252380" target="_blank" class="externalLink" rel="nofollow">https://www.imdb.com/title/tt1252380</a></div>
</div></div>
<div class="ToggleTriggerAnchor bbCodeSpoilerContainer">
<button type="button" class="button bbCodeSpoilerButton ToggleTrigger Tooltip JsOnly" data-target="> .SpoilerTarget"><span>Spoiler: <span class="SpoilerTitle">Media Info:</span></span></button>
<div class="SpoilerTarget bbCodeSpoilerText">General<br>
Complete name : C:\Users\Maverick\Desktop\Camp Rock 2; The Final Jam (1080p) (DTS-HD) (MA) (5.1) (BluRay) (2010) (Remux) [MAVERICK].mkv<br>
Format : Matroska<br>
Format version : Version 4<br>
File size : 26.4 GiB<br>
Duration : 1 h 44 min<br>
Overall bit rate mode : Variable<br>
Overall bit rate : 36.2 Mb/s<br>
Movie name : Camp Rock 2: The Final Jam (1080p) (DTS-HD) (MA) (5.1) (BluRay) (2010) (Remux) [MAVERICK]<br>
Encoded date : UTC 2023-07-04 19:19:43<br>
Writing application : mkvmerge v78.0 ('Running') 64-bit<br>
Writing library : libebml v1.4.4 + libmatroska v1.7.1<br>
<br>
Video<br>
ID : 1<br>
Format : AVC<br>
Format/Info : Advanced Video Codec<br>
Format profile : High@L4.1<br>
Format settings : CABAC / 4 Ref Frames<br>
Format settings, CABAC : Yes<br>
Format settings, Reference fra : 4 frames<br>
Codec ID : V_MPEG4/ISO/AVC<br>
Duration : 1 h 44 min<br>
Bit rate mode : Variable<br>
Bit rate : 32.0 Mb/s<br>
Maximum bit rate : 33.0 Mb/s<br>
Width : 1920 pixels<br>
Height : 1080 pixels<br>
Display aspect ratio : 16:9<br>
Frame rate mode : Constant<br>
Frame rate : 23.976 (24000/1001) FPS<br>
Color space : YUV<br>
Chroma subsampling : 4:2:0<br>
Bit depth : 8 bits<br>
Scan type : Progressive<br>
Bits/(Pixel*Frame) : 0.644<br>
Stream size : 23.3 GiB (88%)<br>
Title : Camp Rock 2: The Final Jam (1080p) (DTS-HD) (MA) (5.1) (BluRay) (2010) (Remux) [MAVERICK]<br>
Language : English<br>
Default : Yes<br>
Forced : Yes<br>
Color range : Limited<br>
Color primaries : BT.709<br>
Transfer characteristics : BT.709<br>
Matrix coefficients : BT.709<br>
<br>
Audio<br>
ID : 2<br>
Format : DTS XLL<br>
Format/Info : Digital Theater Systems<br>
Commercial name : DTS-HD Master Audio<br>
Codec ID : A_DTS<br>
Duration : 1 h 44 min<br>
Bit rate mode : Variable<br>
Bit rate : 4 211 kb/s<br>
Channel(s) : 6 channels<br>
Channel layout : C L R Ls Rs LFE<br>
Sampling rate : 48.0 kHz<br>
Frame rate : 93.750 FPS (512 SPF)<br>
Bit depth : 24 bits<br>
Compression mode : Lossless<br>
Stream size : 3.06 GiB (12%)<br>
Title : DTS-HD MA 5.1<br>
Language : English<br>
Default : Yes<br>
Forced : Yes<br>
<br>
Menu<br>
00:00:00.000 : en:Chapter 1<br>
00:09:29.360 : en:Chapter 2<br>
00:20:44.702 : en:Chapter 3<br>
00:24:10.574 : en:Chapter 4<br>
00:34:07.128 : en:Chapter 5<br>
00:43:08.628 : en:Chapter 6<br>
00:51:34.758 : en:Chapter 7<br>
00:58:24.042 : en:Chapter 8<br>
01:05:00.105 : en:Chapter 9<br>
01:09:54.190 : en:Chapter 10<br>
01:13:05.840 : en:Chapter 11<br>
01:18:27.036 : en:Chapter 12<br>
01:26:21.051 : en:Chapter 13<br>
01:30:01.396 : en:Chapter 14<br>
01:36:34.372 : en:Chapter 15<br>
01:43:13.896 : en:Chapter 16</div>
</div><div style="text-align: left">
<div class="ToggleTriggerAnchor bbCodeSpoilerContainer">
<button type="button" class="button bbCodeSpoilerButton ToggleTrigger Tooltip JsOnly" data-target="> .SpoilerTarget"><span>Spoiler: <span class="SpoilerTitle">Download:</span></span></button>
<div class="SpoilerTarget bbCodeSpoilerText">
<div class="bbCodeBlock bbCodeVfcHH HiddenContent">
<div class="attribution type">Hidden Content:</div>
<blockquote>You must either reply or click 'Like' to see the hidden information contained here.</blockquote>
</div></div>
</div></div><div style="text-align: center"><b>Please Note This File Has Been uploaded to Gofile, because its free fast upload and download speeds Grab it while you can, Admin should reupload My files to google drive.<br>
<br>
<b><b><b>Please Credit Me Maverick if you are going to upload my files elsewhere!</b></b></b></b><br>
<br>
<b><b><b><b>New Content will only Be Uploaded from this Account <a href="https://sharemania.us/members/176676/" class="username" data-user="176676, @Maverick">@Maverick</a></b></b></b></b><br>
<br>
<b><b>Enjoy <img src="styles/default/xenforo/smilies/big_smile-48.png" class="mceSmilie" alt=":)" title="Smile    :)"></b></b><br>
​</div>
<div class="messageTextEndMarker">&nbsp;</div>
</blockquote>
</article>]]></description>
                <author><![CDATA[Maverick]]></author>
                </item>

                </channel></rss>